<svg width="512" height="512" viewBox="0 0 512 512" xmlns="http://www.w3.org/2000/svg" role="img" aria-labelledby="title desc">
  <title>Portfolio Logo</title>
  <desc>Simple monogram logo for a personal portfolio.</desc>
  <defs>
    <linearGradient id="bg" x1="96" y1="80" x2="416" y2="432" gradientUnits="userSpaceOnUse">
      <stop stop-color="#111111" />
      <stop offset="1" stop-color="#2A2A2A" />
    </linearGradient>
    <linearGradient id="accent" x1="160" y1="140" x2="352" y2="372" gradientUnits="userSpaceOnUse">
      <stop stop-color="#F4BACC" />
      <stop offset="1" stop-color="#F08AA6" />
    </linearGradient>
  </defs>
  <rect x="32" y="32" width="448" height="448" rx="112" fill="url(#bg)" />
  <circle cx="256" cy="196" r="120" fill="url(#accent)" opacity="0.14" />
  <path d="M176 166C176 157.163 183.163 150 192 150H238C279.421 150 313 183.579 313 225C313 266.421 279.421 300 238 300H224V350C224 358.837 216.837 366 208 366H192C183.163 366 176 358.837 176 350V166Z" fill="#FFFFFF" />
  <path d="M224 192C224 188.686 226.686 186 230 186H242C259.673 186 274 200.327 274 218C274 235.673 259.673 250 242 250H224V192Z" fill="#111111" />
  <path d="M286 168L327 366H298L289 329H244L235 366H206L247 168H286ZM289 304L266 206L243 304H289Z" fill="#FFFFFF" />
  <path d="M160 386C160 379.373 165.373 374 172 374H340C346.627 374 352 379.373 352 386V394C352 400.627 346.627 406 340 406H172C165.373 406 160 400.627 160 394V386Z" fill="url(#accent)" />
  <text x="256" y="438" text-anchor="middle" fill="#FFFFFF" font-family="Arial, Helvetica, sans-serif" font-size="28" font-weight="700" letter-spacing="5">PORTFOLIO</text>
</svg>
